<svg xmlns="http://www.w3.org/2000/svg" version="1.0" width="553.000000pt" height="298.000000pt" viewBox="0 0 553.000000 298.000000" preserveAspectRatio="xMidYMid meet">
<metadata>
Created by potrace 1.16, written by Peter Selinger 2001-2019
</metadata>
<g transform="translate(0.000000,298.000000) scale(0.100000,-0.100000)" fill="#000000" stroke="none">
<path d="M2510 2877 c-69 -19 -155 -48 -191 -64 -175 -81 -364 -243 -467 -401 l-53 -80 -62 21 c-87 28 -280 35 -366 13 -236 -61 -428 -249 -489 -483 l-17 -67 -75 -22 c-172 -49 -326 -164 -426 -317 -91 -139 -124 -255 -124 -438 0 -207 38 -342 144 -503 125 -192 317 -326 551 -384 41 -10 3079 -13 3146 -2 118 18 243 66 350 137 60 39 72 49 142 121 108 111 177 223 227 372 27 80 39 314 21 427 -52 337 -331 650 -686 771 -75 25 -218 59 -262 61 -7 1 -13 8 -13 16 0 8 -16 60 -34 116 -35 102 -100 225 -163 309 -96 127 -257 259 -395 324 -164 76 -260 97 -463 102 -168 4 -172 4 -295 -29z m496 -171 c198 -49 361 -151 495 -310 64 -75 137 -208 164 -296 21 -70 44 -210 38 -227 -4 -10 11 -13 65 -13 226 0 473 -97 633 -248 113 -106 183 -215 231 -358 19 -58 23 -90 23 -199 0 -116 -3 -139 -29 -217 -80 -247 -279 -435 -531 -504 -41 -11 -314 -14 -1556 -14 -1470 0 -1508 0 -1583 20 -121 31 -227 92 -321 185 -134 132 -206 285 -220 466 -27 340 239 648 558 649 l67 0 0 63 c0 120 49 250 127 337 58 64 110 100 198 135 109 44 262 39 341 -11 l22 -13 -20 -68 c-10 -37 -22 -111 -25 -164 -6 -95 -6 -95 22 -117 17 -14 42 -22 66 -22 53 0 74 30 83 117 17 183 81 343 194 483 138 173 337 295 549 335 95 18 319 13 409 -9z" fill="#FFA500" />
<path d="M2566 1200 c-23 -144 -100 -238 -234 -286 l-84 -31 76 -27 c93 -34 161 -92 199 -169 15 -31 27 -62 27 -69 0 -7 5 -31 11 -52 l11 -40 37 90 c42 102 75 150 129 187 41 29 126 67 148 67 32 0 11 17 -40 33 -121 39 -198 119 -246 257 l-28 79 -6 -39z" fill="#FFFFFF" />
</g>
</svg>